<svg viewBox="0 0 975 800" xmlns="http://www.w3.org/2000/svg" font-family="&#39;Helvetica Neue&#39;,Helvetica,Arial,sans-serif">
  <defs>
    <filter id="sh" x="-8%" y="-8%" width="116%" height="122%"><feDropShadow dx="0" dy="1" stdDeviation="3" flood-color="#1e293b" flood-opacity="0.07"></feDropShadow></filter>
    <filter id="sh-sm" x="-5%" y="-5%" width="110%" height="116%"><feDropShadow dx="0" dy="1" stdDeviation="2" flood-color="#1e293b" flood-opacity="0.05"></feDropShadow></filter>
    <linearGradient id="aco-grad" x1="0%" y1="0%" x2="100%" y2="0%"><stop offset="0%" stop-color="#0f172a"></stop><stop offset="100%" stop-color="#1e293b"></stop></linearGradient>
    <marker id="arr" viewBox="0 0 10 8" refX="9" refY="4" markerWidth="7" markerHeight="7" orient="auto"><path d="M0 0.5 L9 4 L0 7.5 z" fill="#94a3b8"></path></marker>
    <marker id="arr-dash" viewBox="0 0 10 8" refX="9" refY="4" markerWidth="7" markerHeight="7" orient="auto"><path d="M0 0.5 L9 4 L0 7.5 z" fill="#d1d5db"></path></marker>
    <clipPath id="aco-clip"><rect x="85" y="510" width="555" height="112" rx="10"></rect></clipPath>
  </defs>

  <rect width="975" height="800" fill="#f1f5f9"></rect>
  <text x="362" y="42" text-anchor="middle" font-size="15" font-weight="700" fill="#0f172a" letter-spacing="0.3">AI CLI Orchestration Wrapper — Architecture</text>

  
  <circle cx="42" cy="118" r="18" fill="none" stroke="#94a3b8" stroke-width="1.5"></circle>
  <path d="M17,148 Q42,134 67,148" fill="none" stroke="#94a3b8" stroke-width="1.5" stroke-linecap="round"></path>
  <text x="42" y="168" text-anchor="middle" font-size="11" fill="#94a3b8">User</text>
  <line x1="62" y1="118" x2="83" y2="118" stroke="#94a3b8" stroke-width="1.5" marker-end="url(#arr)"></line>

  
  <rect x="85" y="76" width="555" height="92" rx="10" fill="white" stroke="#d1d5db" stroke-width="1.5" stroke-dasharray="6,3" filter="url(#sh)"></rect>
  <text x="103" y="96" font-size="9" font-weight="700" letter-spacing="1.5" fill="#9ca3af">AI CLI — ENTRY POINT (ORCHESTRATOR)</text>

  
  <svg x="103" y="107" width="22" height="22" viewBox="0 0 24 24" xmlns="http://www.w3.org/2000/svg"><path d="M13.827 3.52h3.603L24 20h-3.603l-6.57-16.48zm-3.654 0H6.57L0 20h3.603l6.57-16.48z" fill="#CC785C"/></svg>
  <text x="131" y="124" font-size="14" font-weight="700" fill="#111827">Claude Code</text>
  <rect x="240" y="111" width="42" height="18" rx="9" fill="#f3e8ff" stroke="#a855f7" stroke-width="1"></rect>
  <text x="261" y="120" text-anchor="middle" dominant-baseline="middle" font-size="8" font-weight="700" fill="#7e22ce">ORCH</text>
  <rect x="288" y="111" width="76" height="18" rx="9" fill="#dcfce7" stroke="#16a34a" stroke-width="1"></rect>
  <text x="326" y="120" text-anchor="middle" dominant-baseline="middle" font-size="8" font-weight="700" fill="#15803d">● SUPPORTED</text>

  
  <svg x="103" y="135" width="22" height="22" viewBox="0 0 24 24" xmlns="http://www.w3.org/2000/svg"><defs><linearGradient gradientUnits="userSpaceOnUse" id="cx-entry" x1="12" x2="12" y1="3" y2="21"><stop stop-color="#B1A7FF"></stop><stop offset=".5" stop-color="#7A9DFF"></stop><stop offset="1" stop-color="#3941FF"></stop></linearGradient></defs><path d="M19.503 0H4.496A4.496 4.496 0 000 4.496v15.007A4.496 4.496 0 004.496 24h15.007A4.496 4.496 0 0024 19.503V4.496A4.496 4.496 0 0019.503 0z" fill="#fff"></path><path d="M9.064 3.344a4.578 4.578 0 012.285-.312c1 .115 1.891.54 2.673 1.275.01.01.024.017.037.021a.09.09 0 00.043 0 4.55 4.55 0 013.046.275l.047.022.116.057a4.581 4.581 0 012.188 2.399c.209.51.313 1.041.315 1.595a4.24 4.24 0 01-.134 1.223.123.123 0 00.03.115c.594.607.988 1.33 1.183 2.17.289 1.425-.007 2.71-.887 3.854l-.136.166a4.548 4.548 0 01-2.201 1.388.123.123 0 00-.081.076c-.191.551-.383 1.023-.74 1.494-.9 1.187-2.222 1.846-3.711 1.838-1.187-.006-2.239-.44-3.157-1.302a.107.107 0 00-.105-.024c-.388.125-.78.143-1.204.138a4.441 4.441 0 01-1.945-.466 4.544 4.544 0 01-1.61-1.335c-.152-.202-.303-.392-.414-.617a5.81 5.81 0 01-.37-.961 4.582 4.582 0 01-.014-2.298.124.124 0 00.006-.056.085.085 0 00-.027-.048 4.467 4.467 0 01-1.034-1.651 3.896 3.896 0 01-.251-1.192 5.189 5.189 0 01.141-1.6c.337-1.112.982-1.985 1.933-2.618.212-.141.413-.251.601-.33.215-.089.43-.164.646-.227a.098.098 0 00.065-.066 4.51 4.51 0 01.829-1.615 4.535 4.535 0 011.837-1.388zm3.482 10.565a.637.637 0 000 1.272h3.636a.637.637 0 100-1.272h-3.636zM8.462 9.23a.637.637 0 00-1.106.631l1.272 2.224-1.266 2.136a.636.636 0 101.095.649l1.454-2.455a.636.636 0 00.005-.64L8.462 9.23z" fill="url(#cx-entry)"></path></svg>
  <text x="131" y="152" font-size="14" font-weight="700" fill="#111827">Codex CLI</text>
  <rect x="225" y="139" width="42" height="18" rx="9" fill="#f3e8ff" stroke="#a855f7" stroke-width="1"></rect>
  <text x="246" y="148" text-anchor="middle" dominant-baseline="middle" font-size="8" font-weight="700" fill="#7e22ce">ORCH</text>
  <rect x="273" y="139" width="70" height="18" rx="9" fill="#fef3c7" stroke="#d97706" stroke-width="1"></rect>
  <text x="308" y="148" text-anchor="middle" dominant-baseline="middle" font-size="8" font-weight="700" fill="#92400e">○ ROADMAP</text>

  <line x1="362" y1="168" x2="362" y2="198" stroke="#94a3b8" stroke-width="1.5" marker-end="url(#arr)"></line>

  
  <rect x="85" y="200" width="555" height="122" rx="10" fill="white" stroke="#d1d5db" stroke-width="1.5" filter="url(#sh)"></rect>
  <text x="103" y="220" font-size="9" font-weight="700" letter-spacing="1.5" fill="#9ca3af">CLAUDE CODE HARNESS</text>
  
  <rect x="385" y="208" width="50" height="18" rx="9" fill="#fef9c3" stroke="#ca8a04" stroke-width="1"></rect>
  <text x="410" y="217" text-anchor="middle" dominant-baseline="middle" font-size="8" font-weight="700" fill="#854d0e">Agents</text>
  <rect x="441" y="208" width="44" height="18" rx="9" fill="#dbeafe" stroke="#2563eb" stroke-width="1"></rect>
  <text x="463" y="217" text-anchor="middle" dominant-baseline="middle" font-size="8" font-weight="700" fill="#1d4ed8">Skills</text>

  <rect x="103" y="228" width="519" height="80" rx="5" fill="#1e1e2e"></rect>
  <text x="117" y="249" font-family="&#39;Courier New&#39;,Courier,monospace" font-size="11"><tspan fill="#64748b">$ </tspan><tspan fill="#cbd5e1">claude --agents planning,code,bug,security</tspan></text>
  <text x="117" y="267" font-family="&#39;Courier New&#39;,Courier,monospace" font-size="11"><tspan fill="#374151">› </tspan><tspan fill="#6b7280">Spawning </tspan><tspan fill="#7dd3fc">planning</tspan><tspan fill="#6b7280"> agent............</tspan><tspan fill="#4ade80">✓</tspan></text>
  <text x="117" y="285" font-family="&#39;Courier New&#39;,Courier,monospace" font-size="11"><tspan fill="#374151">› </tspan><tspan fill="#6b7280">Spawning </tspan><tspan fill="#7dd3fc">code builder</tspan><tspan fill="#6b7280">...........</tspan><tspan fill="#4ade80">✓</tspan></text>
  <text x="117" y="303" font-family="&#39;Courier New&#39;,Courier,monospace" font-size="11"><tspan fill="#374151">› </tspan><tspan fill="#6b7280">Spawning </tspan><tspan fill="#7dd3fc">bug finder</tspan><tspan fill="#6b7280"> + </tspan><tspan fill="#7dd3fc">security auditor</tspan><tspan fill="#6b7280">......</tspan><tspan fill="#4ade80">✓</tspan></text>

  <line x1="362" y1="322" x2="362" y2="350" stroke="#94a3b8" stroke-width="1.5" marker-end="url(#arr)"></line>

  
  <rect x="85" y="353" width="555" height="115" rx="10" fill="#eff6ff" stroke="#3b82f6" stroke-width="1.5" stroke-dasharray="7,4"></rect>
  <text x="103" y="372" font-size="9" font-weight="700" letter-spacing="1.5" fill="#3b82f6">SUBAGENT CONTEXT</text>
  <rect x="103" y="380" width="120" height="68" rx="7" fill="white" stroke="#93c5fd" stroke-width="1.2"></rect>
  <rect x="103" y="380" width="120" height="9" rx="7" fill="#3b82f6"></rect><rect x="103" y="384" width="120" height="5" fill="#3b82f6"></rect>
  <text x="163" y="411" text-anchor="middle" font-size="12" font-weight="600" fill="#1d4ed8">planning</text>
  <text x="163" y="427" text-anchor="middle" font-size="10" fill="#6b7280">agent</text>
  <text x="163" y="441" text-anchor="middle" font-size="9" fill="#94a3b8">discussion</text>
  <rect x="233" y="380" width="120" height="68" rx="7" fill="white" stroke="#93c5fd" stroke-width="1.2"></rect>
  <rect x="233" y="380" width="120" height="9" rx="7" fill="#3b82f6"></rect><rect x="233" y="384" width="120" height="5" fill="#3b82f6"></rect>
  <text x="293" y="411" text-anchor="middle" font-size="12" font-weight="600" fill="#1d4ed8">code</text>
  <text x="293" y="427" text-anchor="middle" font-size="10" fill="#6b7280">builder</text>
  <text x="293" y="441" text-anchor="middle" font-size="9" fill="#94a3b8">implement</text>
  <rect x="363" y="380" width="120" height="68" rx="7" fill="white" stroke="#93c5fd" stroke-width="1.2"></rect>
  <rect x="363" y="380" width="120" height="9" rx="7" fill="#3b82f6"></rect><rect x="363" y="384" width="120" height="5" fill="#3b82f6"></rect>
  <text x="423" y="411" text-anchor="middle" font-size="12" font-weight="600" fill="#1d4ed8">bug</text>
  <text x="423" y="427" text-anchor="middle" font-size="10" fill="#6b7280">finder</text>
  <text x="423" y="441" text-anchor="middle" font-size="9" fill="#94a3b8">debug</text>
  <rect x="493" y="380" width="138" height="68" rx="7" fill="white" stroke="#93c5fd" stroke-width="1.2"></rect>
  <rect x="493" y="380" width="138" height="9" rx="7" fill="#3b82f6"></rect><rect x="493" y="384" width="138" height="5" fill="#3b82f6"></rect>
  <text x="562" y="411" text-anchor="middle" font-size="12" font-weight="600" fill="#1d4ed8">security</text>
  <text x="562" y="427" text-anchor="middle" font-size="10" fill="#6b7280">auditor</text>
  <text x="562" y="441" text-anchor="middle" font-size="9" fill="#94a3b8">review</text>

  <line x1="362" y1="468" x2="362" y2="476" stroke="#94a3b8" stroke-width="1.5"></line>
  <text x="362" y="488" text-anchor="middle" font-size="9" font-family="&#39;Courier New&#39;,Courier,monospace" fill="#94a3b8">/aco · aco pack · aco sync</text>
  <line x1="362" y1="495" x2="362" y2="508" stroke="#94a3b8" stroke-width="1.5" marker-end="url(#arr)"></line>

  
  <rect x="85" y="510" width="555" height="112" rx="10" fill="white" stroke="#1e293b" stroke-width="2" filter="url(#sh)"></rect>
  <rect x="85" y="510" width="555" height="40" fill="url(#aco-grad)" clip-path="url(#aco-clip)"></rect>
  <text x="103" y="536" font-size="14" fill="#475569">⚙</text>
  <text x="122" y="536" font-size="14" font-weight="700" fill="white">aco CLI</text>
  <text x="195" y="536" font-size="10" fill="#64748b">— @pureliture/ai-cli-orch-wrapper</text>
  <rect x="512" y="521" width="112" height="18" rx="9" fill="#0f766e"></rect>
  <text x="568" y="530" text-anchor="middle" dominant-baseline="middle" font-size="8" font-weight="700" fill="#ccfbf1" letter-spacing="0.5">CONSENT-GATED</text>
  <rect x="103" y="562" width="32" height="20" rx="10" fill="#f1f5f9" stroke="#e2e8f0" stroke-width="1"></rect><text x="119" y="572" text-anchor="middle" dominant-baseline="middle" font-size="9" font-weight="600" fill="#374151">ask</text>
  <rect x="141" y="562" width="52" height="20" rx="10" fill="#f1f5f9" stroke="#e2e8f0" stroke-width="1"></rect><text x="167" y="572" text-anchor="middle" dominant-baseline="middle" font-size="9" font-weight="600" fill="#374151">doctor</text>
  <rect x="199" y="562" width="32" height="20" rx="10" fill="#f1f5f9" stroke="#e2e8f0" stroke-width="1"></rect><text x="215" y="572" text-anchor="middle" dominant-baseline="middle" font-size="9" font-weight="600" fill="#374151">run</text>
  <rect x="237" y="562" width="44" height="20" rx="10" fill="#f1f5f9" stroke="#e2e8f0" stroke-width="1"></rect><text x="259" y="572" text-anchor="middle" dominant-baseline="middle" font-size="9" font-weight="600" fill="#374151">result</text>
  <rect x="287" y="562" width="44" height="20" rx="10" fill="#f1f5f9" stroke="#e2e8f0" stroke-width="1"></rect><text x="309" y="572" text-anchor="middle" dominant-baseline="middle" font-size="9" font-weight="600" fill="#374151">status</text>
  <rect x="337" y="562" width="46" height="20" rx="10" fill="#f1f5f9" stroke="#e2e8f0" stroke-width="1"></rect><text x="360" y="572" text-anchor="middle" dominant-baseline="middle" font-size="9" font-weight="600" fill="#374151">cancel</text>
  <rect x="389" y="562" width="36" height="20" rx="10" fill="#f1f5f9" stroke="#e2e8f0" stroke-width="1"></rect><text x="407" y="572" text-anchor="middle" dominant-baseline="middle" font-size="9" font-weight="600" fill="#374151">sync</text>
  <rect x="431" y="562" width="36" height="20" rx="10" fill="#f1f5f9" stroke="#e2e8f0" stroke-width="1"></rect><text x="449" y="572" text-anchor="middle" dominant-baseline="middle" font-size="9" font-weight="600" fill="#374151">pack</text>
  <text x="103" y="597" font-size="9" fill="#6b7280"><tspan font-weight="600">Defaults:</tspan>  --providers mock · --permission-profile restricted · --output-mode brief · --yes required</text>

  
  <line x1="362" y1="622" x2="362" y2="632" stroke="#94a3b8" stroke-width="1.5"></line>
  <line x1="169" y1="632" x2="499" y2="632" stroke="#94a3b8" stroke-width="1.5"></line>
  <line x1="169" y1="632" x2="169" y2="660" stroke="#94a3b8" stroke-width="1.5" marker-end="url(#arr)"></line>
  <line x1="339" y1="632" x2="339" y2="660" stroke="#94a3b8" stroke-width="1.5" marker-end="url(#arr)"></line>
  <line x1="499" y1="632" x2="499" y2="660" stroke="#d1d5db" stroke-width="1.5" stroke-dasharray="4,3" marker-end="url(#arr-dash)"></line>
  
  <text x="169" y="626" text-anchor="middle" font-size="8.5" font-family="&#39;Courier New&#39;,Courier,monospace" fill="#94a3b8">aco ask gemini</text>
  <text x="339" y="626" text-anchor="middle" font-size="8.5" font-family="&#39;Courier New&#39;,Courier,monospace" fill="#94a3b8">aco ask codex</text>
  <text x="499" y="626" text-anchor="middle" font-size="8.5" font-family="&#39;Courier New&#39;,Courier,monospace" fill="#d1d5db">aco ask ···</text>

  
  
  <rect x="85" y="662" width="168" height="105" rx="10" fill="white" stroke="#e2e8f0" stroke-width="1.5" filter="url(#sh-sm)"></rect>
  <svg x="152" y="669" width="34" height="34" viewBox="0 0 24 24" xmlns="http://www.w3.org/2000/svg"><path d="M12 2C12 2 10.2 10.2 2 12C10.2 13.8 12 22 12 22C12 22 13.8 13.8 22 12C13.8 10.2 12 2 12 2Z" fill="#4285F4"/></svg>
  <text x="169" y="716" text-anchor="middle" font-size="13" font-weight="700" fill="#111827">Gemini CLI</text>
  <text x="169" y="731" text-anchor="middle" font-size="8.5" font-family="&#39;Courier New&#39;,Courier,monospace" fill="#9ca3af">@google/gemini-cli</text>
  <text x="169" y="745" text-anchor="middle" font-size="8.5" fill="#94a3b8">GEMINI_API_KEY · OAuth</text>

  
  <rect x="263" y="662" width="152" height="105" rx="10" fill="white" stroke="#e2e8f0" stroke-width="1.5" filter="url(#sh-sm)"></rect>
  <svg x="315" y="669" width="34" height="34" viewBox="0 0 24 24" xmlns="http://www.w3.org/2000/svg"><defs><linearGradient gradientUnits="userSpaceOnUse" id="cx-bottom" x1="12" x2="12" y1="3" y2="21"><stop stop-color="#B1A7FF"></stop><stop offset=".5" stop-color="#7A9DFF"></stop><stop offset="1" stop-color="#3941FF"></stop></linearGradient></defs><path d="M19.503 0H4.496A4.496 4.496 0 000 4.496v15.007A4.496 4.496 0 004.496 24h15.007A4.496 4.496 0 0024 19.503V4.496A4.496 4.496 0 0019.503 0z" fill="#fff"></path><path d="M9.064 3.344a4.578 4.578 0 012.285-.312c1 .115 1.891.54 2.673 1.275.01.01.024.017.037.021a.09.09 0 00.043 0 4.55 4.55 0 013.046.275l.047.022.116.057a4.581 4.581 0 012.188 2.399c.209.51.313 1.041.315 1.595a4.24 4.24 0 01-.134 1.223.123.123 0 00.03.115c.594.607.988 1.33 1.183 2.17.289 1.425-.007 2.71-.887 3.854l-.136.166a4.548 4.548 0 01-2.201 1.388.123.123 0 00-.081.076c-.191.551-.383 1.023-.74 1.494-.9 1.187-2.222 1.846-3.711 1.838-1.187-.006-2.239-.44-3.157-1.302a.107.107 0 00-.105-.024c-.388.125-.78.143-1.204.138a4.441 4.441 0 01-1.945-.466 4.544 4.544 0 01-1.61-1.335c-.152-.202-.303-.392-.414-.617a5.81 5.81 0 01-.37-.961 4.582 4.582 0 01-.014-2.298.124.124 0 00.006-.056.085.085 0 00-.027-.048 4.467 4.467 0 01-1.034-1.651 3.896 3.896 0 01-.251-1.192 5.189 5.189 0 01.141-1.6c.337-1.112.982-1.985 1.933-2.618.212-.141.413-.251.601-.33.215-.089.43-.164.646-.227a.098.098 0 00.065-.066 4.51 4.51 0 01.829-1.615 4.535 4.535 0 011.837-1.388zm3.482 10.565a.637.637 0 000 1.272h3.636a.637.637 0 100-1.272h-3.636zM8.462 9.23a.637.637 0 00-1.106.631l1.272 2.224-1.266 2.136a.636.636 0 101.095.649l1.454-2.455a.636.636 0 00.005-.64L8.462 9.23z" fill="url(#cx-bottom)"></path></svg>
  <text x="339" y="716" text-anchor="middle" font-size="13" font-weight="700" fill="#111827">Codex CLI</text>
  <text x="339" y="731" text-anchor="middle" font-size="8.5" font-family="&#39;Courier New&#39;,Courier,monospace" fill="#9ca3af">@openai/codex</text>
  <text x="339" y="745" text-anchor="middle" font-size="8.5" fill="#94a3b8">OPENAI_API_KEY · OAuth</text>

  
  <rect x="425" y="662" width="148" height="105" rx="10" fill="#f9fafb" stroke="#d1d5db" stroke-width="1.5" stroke-dasharray="5,3"></rect>
  <text x="499" y="706" text-anchor="middle" font-size="26" fill="#e2e8f0">+</text>
  <text x="499" y="726" text-anchor="middle" font-size="12" font-weight="700" fill="#d1d5db">Future CLI</text>
  <text x="499" y="742" text-anchor="middle" font-size="8.5" fill="#e2e8f0">any provider · extensible</text>

  <text x="585" y="720" font-size="22" fill="#d1d5db" letter-spacing="2">···</text>
  <text x="362" y="782" text-anchor="middle" font-size="9.5" fill="#94a3b8" font-style="italic">advisory output saved as artifacts</text>

  
  
  <rect x="668" y="76" width="280" height="326" rx="10" fill="white" stroke="#e2e8f0" stroke-width="1.5" filter="url(#sh)"></rect>
  <text x="808" y="106" text-anchor="middle" font-size="14" font-weight="700" fill="#111827">Supported CLIs</text>
  <line x1="686" y1="118" x2="930" y2="118" stroke="#f1f5f9" stroke-width="1"></line>

  
  <svg x="686" y="126" width="18" height="18" viewBox="0 0 24 24" xmlns="http://www.w3.org/2000/svg"><path d="M13.827 3.52h3.603L24 20h-3.603l-6.57-16.48zm-3.654 0H6.57L0 20h3.603l6.57-16.48z" fill="#CC785C"/></svg>
  <text x="710" y="140" font-size="13" font-weight="700" fill="#111827">Claude Code</text>
  <text x="686" y="154" font-size="8.5" font-family="&#39;Courier New&#39;,Courier,monospace" fill="#9ca3af">@anthropic/claude-code</text>
  <text x="686" y="172" font-size="9.5" fill="#6b7280">Orchestrator</text>
  <rect x="758" y="160" width="76" height="18" rx="9" fill="#dcfce7" stroke="#16a34a" stroke-width="1"></rect>
  <text x="796" y="169" text-anchor="middle" dominant-baseline="middle" font-size="8" font-weight="700" fill="#15803d">● SUPPORTED</text>
  <text x="686" y="192" font-size="9.5" fill="#6b7280">Sub-agent</text>
  <rect x="758" y="180" width="76" height="18" rx="9" fill="#dcfce7" stroke="#16a34a" stroke-width="1"></rect>
  <text x="796" y="189" text-anchor="middle" dominant-baseline="middle" font-size="8" font-weight="700" fill="#15803d">● SUPPORTED</text>
  <line x1="686" y1="206" x2="930" y2="206" stroke="#f1f5f9" stroke-width="1"></line>

  
  <svg x="686" y="213" width="18" height="18" viewBox="0 0 24 24" xmlns="http://www.w3.org/2000/svg"><defs><linearGradient gradientUnits="userSpaceOnUse" id="cx-panel" x1="12" x2="12" y1="3" y2="21"><stop stop-color="#B1A7FF"></stop><stop offset=".5" stop-color="#7A9DFF"></stop><stop offset="1" stop-color="#3941FF"></stop></linearGradient></defs><path d="M19.503 0H4.496A4.496 4.496 0 000 4.496v15.007A4.496 4.496 0 004.496 24h15.007A4.496 4.496 0 0024 19.503V4.496A4.496 4.496 0 0019.503 0z" fill="#fff"></path><path d="M9.064 3.344a4.578 4.578 0 012.285-.312c1 .115 1.891.54 2.673 1.275.01.01.024.017.037.021a.09.09 0 00.043 0 4.55 4.55 0 013.046.275l.047.022.116.057a4.581 4.581 0 012.188 2.399c.209.51.313 1.041.315 1.595a4.24 4.24 0 01-.134 1.223.123.123 0 00.03.115c.594.607.988 1.33 1.183 2.17.289 1.425-.007 2.71-.887 3.854l-.136.166a4.548 4.548 0 01-2.201 1.388.123.123 0 00-.081.076c-.191.551-.383 1.023-.74 1.494-.9 1.187-2.222 1.846-3.711 1.838-1.187-.006-2.239-.44-3.157-1.302a.107.107 0 00-.105-.024c-.388.125-.78.143-1.204.138a4.441 4.441 0 01-1.945-.466 4.544 4.544 0 01-1.61-1.335c-.152-.202-.303-.392-.414-.617a5.81 5.81 0 01-.37-.961 4.582 4.582 0 01-.014-2.298.124.124 0 00.006-.056.085.085 0 00-.027-.048 4.467 4.467 0 01-1.034-1.651 3.896 3.896 0 01-.251-1.192 5.189 5.189 0 01.141-1.6c.337-1.112.982-1.985 1.933-2.618.212-.141.413-.251.601-.33.215-.089.43-.164.646-.227a.098.098 0 00.065-.066 4.51 4.51 0 01.829-1.615 4.535 4.535 0 011.837-1.388zm3.482 10.565a.637.637 0 000 1.272h3.636a.637.637 0 100-1.272h-3.636zM8.462 9.23a.637.637 0 00-1.106.631l1.272 2.224-1.266 2.136a.636.636 0 101.095.649l1.454-2.455a.636.636 0 00.005-.64L8.462 9.23z" fill="url(#cx-panel)"></path></svg>
  <text x="710" y="227" font-size="13" font-weight="700" fill="#111827">Codex CLI</text>
  <text x="686" y="242" font-size="8.5" font-family="&#39;Courier New&#39;,Courier,monospace" fill="#9ca3af">@openai/codex</text>
  <text x="686" y="260" font-size="9.5" fill="#6b7280">Orchestrator</text>
  <rect x="758" y="248" width="70" height="18" rx="9" fill="#fef3c7" stroke="#d97706" stroke-width="1"></rect>
  <text x="793" y="257" text-anchor="middle" dominant-baseline="middle" font-size="8" font-weight="700" fill="#92400e">○ ROADMAP</text>
  <text x="686" y="280" font-size="9.5" fill="#6b7280">Sub-agent</text>
  <rect x="758" y="268" width="76" height="18" rx="9" fill="#dcfce7" stroke="#16a34a" stroke-width="1"></rect>
  <text x="796" y="277" text-anchor="middle" dominant-baseline="middle" font-size="8" font-weight="700" fill="#15803d">● SUPPORTED</text>
  <line x1="686" y1="294" x2="930" y2="294" stroke="#f1f5f9" stroke-width="1"></line>

  
  <svg x="686" y="301" width="18" height="18" viewBox="0 0 24 24" xmlns="http://www.w3.org/2000/svg"><path d="M12 2C12 2 10.2 10.2 2 12C10.2 13.8 12 22 12 22C12 22 13.8 13.8 22 12C13.8 10.2 12 2 12 2Z" fill="#4285F4"/></svg>
  <text x="710" y="316" font-size="13" font-weight="700" fill="#111827">Gemini CLI</text>
  <text x="686" y="330" font-size="8.5" font-family="&#39;Courier New&#39;,Courier,monospace" fill="#9ca3af">@google/gemini-cli</text>
  <text x="686" y="348" font-size="9.5" fill="#6b7280">Orchestrator</text>
  <rect x="758" y="336" width="40" height="18" rx="9" fill="#f9fafb" stroke="#d1d5db" stroke-width="1"></rect>
  <text x="778" y="345" text-anchor="middle" dominant-baseline="middle" font-size="8" fill="#9ca3af">— N/A</text>
  <text x="686" y="368" font-size="9.5" fill="#6b7280">Sub-agent</text>
  <rect x="758" y="356" width="76" height="18" rx="9" fill="#dcfce7" stroke="#16a34a" stroke-width="1"></rect>
  <text x="796" y="365" text-anchor="middle" dominant-baseline="middle" font-size="8" font-weight="700" fill="#15803d">● SUPPORTED</text>
  <text x="686" y="390" font-size="8.5" fill="#9ca3af" font-style="italic">● active  ○ roadmap  — not applicable</text>

  
  <rect x="668" y="416" width="280" height="132" rx="10" fill="white" stroke="#e2e8f0" stroke-width="1.5" filter="url(#sh)"></rect>
  <text x="686" y="437" font-size="9" font-weight="700" letter-spacing="1.5" fill="#9ca3af">SESSION STORE</text>
  <text x="686" y="456" font-size="13" font-weight="700" fill="#111827">💾 Session Store</text>
  <rect x="686" y="463" width="244" height="70" rx="5" fill="#f8fafc" stroke="#e2e8f0" stroke-width="1"></rect>
  <text x="698" y="480" font-size="9" font-family="&#39;Courier New&#39;,Courier,monospace" fill="#6b7280">~/.aco/runs/&lt;run-id&gt;/</text>
  <text x="698" y="496" font-size="9" font-family="&#39;Courier New&#39;,Courier,monospace" fill="#6b7280">~/.aco/sessions/&lt;uuid&gt;/</text>
  <text x="698" y="512" font-size="9" font-family="&#39;Courier New&#39;,Courier,monospace" fill="#94a3b8">ledger.json · brief.md · task.json</text>
  <text x="698" y="526" font-size="9" font-family="&#39;Courier New&#39;,Courier,monospace" fill="#94a3b8">output.log · aco result</text>
</svg>