<svg viewBox="0 0 720 320" xmlns="http://www.w3.org/2000/svg"
     font-family="'Segoe UI',system-ui,-apple-system,BlinkMacSystemFont,sans-serif">
  <defs>
    <!-- Background gradient -->
    <linearGradient id="bg-grad" x1="0%" y1="0%" x2="100%" y2="100%">
      <stop offset="0%" stop-color="#fdf4ff"/>
      <stop offset="50%" stop-color="#eef2ff"/>
      <stop offset="100%" stop-color="#f0fdfa"/>
    </linearGradient>

    <!-- Gradients for components -->
    <linearGradient id="purple-grad" x1="0%" y1="0%" x2="100%" y2="100%">
      <stop offset="0%" stop-color="#a78bfa"/>
      <stop offset="100%" stop-color="#7c3aed"/>
    </linearGradient>
    <linearGradient id="blue-grad" x1="0%" y1="0%" x2="100%" y2="100%">
      <stop offset="0%" stop-color="#60a5fa"/>
      <stop offset="100%" stop-color="#2563eb"/>
    </linearGradient>
    <linearGradient id="slate-grad" x1="0%" y1="0%" x2="100%" y2="100%">
      <stop offset="0%" stop-color="#94a3b8"/>
      <stop offset="100%" stop-color="#475569"/>
    </linearGradient>
    <linearGradient id="orange-grad" x1="0%" y1="0%" x2="100%" y2="100%">
      <stop offset="0%" stop-color="#fbbf24"/>
      <stop offset="100%" stop-color="#d97706"/>
    </linearGradient>
    <linearGradient id="green-grad" x1="0%" y1="0%" x2="100%" y2="100%">
      <stop offset="0%" stop-color="#34d399"/>
      <stop offset="100%" stop-color="#059669"/>
    </linearGradient>

    <!-- Drop shadow filter -->
    <filter id="shadow" x="-10%" y="-10%" width="120%" height="130%">
      <feGaussianBlur in="SourceAlpha" stdDeviation="2.5"/>
      <feOffset dx="0" dy="2" result="offset-blur"/>
      <feFlood flood-color="#1e1b4b" flood-opacity="0.15"/>
      <feComposite in2="offset-blur" operator="in"/>
      <feMerge>
        <feMergeNode/>
        <feMergeNode in="SourceGraphic"/>
      </feMerge>
    </filter>

    <!-- Arrow marker -->
    <marker id="arrow" viewBox="0 0 10 10" refX="9" refY="5"
            markerWidth="6" markerHeight="6" orient="auto">
      <path d="M 0 0 L 10 5 L 0 10 z" fill="#64748b"/>
    </marker>
  </defs>

  <!-- Background -->
  <rect width="720" height="320" rx="16" fill="url(#bg-grad)"/>

  <!-- Decorative dots -->
  <circle cx="20" cy="20" r="2.5" fill="#8b5cf6" opacity="0.4"/>
  <circle cx="700" cy="20" r="2.5" fill="#3b82f6" opacity="0.4"/>

  <!-- Title -->
  <text x="360" y="28" text-anchor="middle" dominant-baseline="middle"
        font-size="15" font-weight="700" fill="#1e293b" letter-spacing="0.3">Context 동기화 — aco sync</text>
  <line x1="278" y1="44" x2="328" y2="44" stroke="#a78bfa" stroke-width="2" stroke-linecap="round"/>
  <line x1="392" y1="44" x2="442" y2="44" stroke="#3b82f6" stroke-width="2" stroke-linecap="round"/>
  <circle cx="360" cy="44" r="3" fill="#8b5cf6"/>

  <!-- ─── LEFT: Claude Sources ─── -->
  <g filter="url(#shadow)">
    <rect x="20" y="60" width="210" height="240" rx="12" fill="white" stroke="#a78bfa" stroke-width="1.5"/>
    <rect x="20" y="60" width="210" height="36" rx="12" fill="url(#purple-grad)"/>
    <rect x="20" y="78" width="210" height="18" fill="url(#purple-grad)"/>
  </g>
  <text x="125" y="78" text-anchor="middle" dominant-baseline="middle"
        font-size="13" font-weight="700" fill="white" letter-spacing="0.3">Claude Sources</text>

  <!-- File entries -->
  <text x="40" y="115" font-size="11" fill="#1e293b">📄  CLAUDE.md</text>
  <text x="40" y="138" font-size="11" fill="#1e293b">📁  .claude/commands/</text>
  <text x="40" y="161" font-size="11" fill="#1e293b">📁  .claude/agents/</text>
  <text x="40" y="184" font-size="11" fill="#1e293b">📁  .claude/skills/</text>
  <text x="40" y="207" font-size="11" fill="#1e293b">⚙️  settings.json</text>
  <text x="40" y="230" font-size="11" fill="#1e293b">📋  rules/*.md</text>

  <line x1="32" y1="248" x2="218" y2="248" stroke="#e2e8f0" stroke-width="1"/>
  <text x="125" y="266" text-anchor="middle" dominant-baseline="middle"
        font-size="10" fill="#94a3b8" font-style="italic">hand-maintained</text>
  <rect x="55" y="276" width="140" height="16" rx="8" fill="#f5f3ff" stroke="#a78bfa" stroke-width="0.5"/>
  <text x="125" y="284" text-anchor="middle" dominant-baseline="middle"
        font-size="9.5" fill="#7c3aed" font-weight="600">SOURCE OF TRUTH</text>

  <!-- ─── CENTER: aco sync ─── -->
  <g filter="url(#shadow)">
    <rect x="278" y="138" width="124" height="48" rx="10" fill="url(#blue-grad)"/>
  </g>
  <text x="340" y="162" text-anchor="middle" dominant-baseline="middle"
        font-size="14" font-weight="700" fill="white" letter-spacing="0.3">aco sync</text>

  <!-- Arrow: left → center -->
  <line x1="230" y1="162" x2="276" y2="162" stroke="#64748b" stroke-width="1.8" marker-end="url(#arrow)"/>
  <text x="253" y="153" text-anchor="middle" font-size="9" font-weight="600" fill="#475569">reads</text>

  <!-- Arrow: center → right -->
  <line x1="402" y1="162" x2="448" y2="162" stroke="#64748b" stroke-width="1.8" marker-end="url(#arrow)"/>
  <text x="425" y="153" text-anchor="middle" font-size="9" font-weight="600" fill="#475569">writes</text>

  <!-- Manifest arrow: center → bottom -->
  <line x1="340" y1="186" x2="340" y2="218" stroke="#64748b" stroke-width="1.5" stroke-dasharray="4,3" marker-end="url(#arrow)"/>
  <rect x="265" y="222" width="150" height="22" rx="11" fill="white" stroke="#94a3b8" stroke-width="1"/>
  <text x="340" y="233" text-anchor="middle" dominant-baseline="middle"
        font-size="10" font-weight="500" fill="#475569">.aco/sync-manifest.json</text>
  <text x="340" y="258" text-anchor="middle" dominant-baseline="middle"
        font-size="9" fill="#94a3b8" font-style="italic">drift tracking</text>

  <!-- ─── RIGHT: Generated Targets ─── -->
  <g filter="url(#shadow)">
    <rect x="450" y="60" width="252" height="240" rx="12" fill="white" stroke="#94a3b8" stroke-width="1.5" stroke-dasharray="6,3"/>
    <rect x="450" y="60" width="252" height="36" rx="12" fill="url(#slate-grad)"/>
    <rect x="450" y="78" width="252" height="18" fill="url(#slate-grad)"/>
  </g>
  <text x="576" y="78" text-anchor="middle" dominant-baseline="middle"
        font-size="13" font-weight="700" fill="white" letter-spacing="0.3">Generated Targets</text>

  <!-- Codex section -->
  <rect x="464" y="110" width="224" height="56" rx="8" fill="#fff7ed" stroke="#f59e0b" stroke-width="1"/>
  <rect x="464" y="110" width="68" height="56" rx="8" fill="url(#orange-grad)"/>
  <rect x="500" y="110" width="32" height="56" fill="url(#orange-grad)"/>
  <text x="498" y="138" text-anchor="middle" dominant-baseline="middle"
        font-size="11" font-weight="700" fill="white">Codex</text>
  <text x="540" y="128" font-size="10" fill="#475569">AGENTS.md</text>
  <text x="540" y="145" font-size="10" fill="#475569">.codex/agents/</text>
  <text x="540" y="161" font-size="10" fill="#475569">.codex/hooks.json</text>

  <!-- Gemini section -->
  <rect x="464" y="174" width="224" height="56" rx="8" fill="#f0fdf4" stroke="#10b981" stroke-width="1"/>
  <rect x="464" y="174" width="68" height="56" rx="8" fill="url(#green-grad)"/>
  <rect x="500" y="174" width="32" height="56" fill="url(#green-grad)"/>
  <text x="498" y="202" text-anchor="middle" dominant-baseline="middle"
        font-size="11" font-weight="700" fill="white">Gemini</text>
  <text x="540" y="192" font-size="10" fill="#475569">GEMINI.md</text>
  <text x="540" y="209" font-size="10" fill="#475569">.gemini/agents/</text>
  <text x="540" y="225" font-size="10" fill="#475569">.gemini/settings.json</text>

  <!-- Shared section -->
  <rect x="464" y="238" width="224" height="42" rx="8" fill="#eff6ff" stroke="#3b82f6" stroke-width="1"/>
  <rect x="464" y="238" width="68" height="42" rx="8" fill="url(#blue-grad)"/>
  <rect x="500" y="238" width="32" height="42" fill="url(#blue-grad)"/>
  <text x="498" y="259" text-anchor="middle" dominant-baseline="middle"
        font-size="11" font-weight="700" fill="white">Shared</text>
  <text x="540" y="254" font-size="10" fill="#475569">.agents/skills/</text>
  <text x="540" y="270" font-size="9.5" fill="#94a3b8" font-style="italic">ACO-owned only</text>

  <text x="576" y="293" text-anchor="middle" dominant-baseline="middle"
        font-size="10" fill="#94a3b8" font-style="italic">auto-generated · manifest-tracked</text>
</svg>
