<svg viewBox="0 0 720 348" xmlns="http://www.w3.org/2000/svg" font-family="&#39;Helvetica Neue&#39;,Helvetica,Arial,sans-serif">
  <defs>
    <filter id="sh" x="-15%" y="-15%" width="130%" height="130%"><feDropShadow dx="0" dy="1" stdDeviation="3" flood-color="#0f172a" flood-opacity="0.07"></feDropShadow></filter>
    <marker id="arr" viewBox="0 0 10 8" refX="9" refY="4" markerWidth="7" markerHeight="7" orient="auto"><path d="M0 0.5 L9 4 L0 7.5 z" fill="#94a3b8"></path></marker>
    <linearGradient id="gm-cs" x1="0%" y1="0%" x2="100%" y2="100%"><stop offset="0%" stop-color="#ea4335"></stop><stop offset="33%" stop-color="#fbbc04"></stop><stop offset="66%" stop-color="#34a853"></stop><stop offset="100%" stop-color="#4285f4"></stop></linearGradient>
  </defs>
  <rect width="720" height="348" rx="14" fill="#f8fafc" stroke="#e2e8f0" stroke-width="1.5"></rect>
  <text x="360" y="28" text-anchor="middle" font-size="13.5" font-weight="700" fill="#0f172a" letter-spacing="0.3">Context Sync — aco sync</text>
  <line x1="255" y1="40" x2="312" y2="40" stroke="#fcd34d" stroke-width="1.5" stroke-linecap="round"></line>
  <circle cx="360" cy="40" r="3" fill="#0d9488"></circle>
  <line x1="408" y1="40" x2="465" y2="40" stroke="#a78bfa" stroke-width="1.5" stroke-linecap="round"></line>
  <text x="32" y="58" font-size="8" font-weight="700" letter-spacing="1.8" fill="#a16207">SOURCE OF TRUTH</text>
  <rect x="24" y="64" width="218" height="252" rx="10" fill="#fffbeb" stroke="#fcd34d" stroke-width="1.5" filter="url(#sh)"></rect>
  <rect x="24" y="64" width="5" height="252" rx="2.5" fill="#d97706"></rect>
  <rect x="57.6" y="75" width="2.8000000000000003" height="14" rx="1.4000000000000001" fill="#D97757" transform="rotate(0 59 82)"></rect><rect x="57.6" y="75" width="2.8000000000000003" height="14" rx="1.4000000000000001" fill="#D97757" transform="rotate(30 59 82)"></rect><rect x="57.6" y="75" width="2.8000000000000003" height="14" rx="1.4000000000000001" fill="#D97757" transform="rotate(60 59 82)"></rect><rect x="57.6" y="75" width="2.8000000000000003" height="14" rx="1.4000000000000001" fill="#D97757" transform="rotate(90 59 82)"></rect><rect x="57.6" y="75" width="2.8000000000000003" height="14" rx="1.4000000000000001" fill="#D97757" transform="rotate(120 59 82)"></rect><rect x="57.6" y="75" width="2.8000000000000003" height="14" rx="1.4000000000000001" fill="#D97757" transform="rotate(150 59 82)"></rect>
  <text x="72" y="86" font-size="12" font-weight="700" fill="#92400e">Claude Sources</text>
  <text x="72" y="101" font-size="9" fill="#a16207">hand-maintained</text>
  <line x1="36" y1="110" x2="230" y2="110" stroke="#fde68a" stroke-width="1"></line>
  <text x="51" y="128" font-size="10" fill="#78350f">CLAUDE.md</text>
  <text x="51" y="148" font-size="10" fill="#78350f">.claude/commands/aco.md</text>
  <text x="51" y="168" font-size="10" fill="#78350f">.claude/skills/aco-delegation</text>
  <text x="51" y="188" font-size="10" fill="#78350f">.claude/aco/tasks/</text>
  <text x="51" y="208" font-size="10" fill="#78350f">settings.json</text>
  <text x="51" y="228" font-size="10" fill="#78350f">agents/  ·  rules/*.md</text>
  <line x1="36" y1="242" x2="230" y2="242" stroke="#fde68a" stroke-width="1"></line>
  <rect x="64" y="252" width="130" height="16" rx="8" fill="#fde68a"></rect>
  <text x="129" y="260" text-anchor="middle" dominant-baseline="middle" font-size="8.5" font-weight="700" fill="#92400e" letter-spacing="0.5">ONE /aco COMMAND</text>
  <text x="51" y="292" font-size="9" fill="#a16207" font-style="italic">consent gate entry point</text>
  <line x1="242" y1="188" x2="284" y2="188" stroke="#cbd5e1" stroke-width="1.5" marker-end="url(#arr)"></line>
  <text x="263" y="181" text-anchor="middle" font-size="8.5" font-weight="600" fill="#64748b">reads</text>
  <rect x="286" y="162" width="148" height="52" rx="9" fill="#1e293b" stroke="#334155" stroke-width="1" filter="url(#sh)"></rect>
  <rect x="286" y="162" width="5" height="52" rx="2.5" fill="#38bdf8"></rect>
  <text x="360" y="184" text-anchor="middle" font-size="13" font-weight="700" fill="white">aco sync</text>
  <text x="360" y="202" text-anchor="middle" font-size="9" fill="#94a3b8">drift detection  ·  manifest</text>
  <line x1="434" y1="188" x2="476" y2="188" stroke="#cbd5e1" stroke-width="1.5" marker-end="url(#arr)"></line>
  <text x="455" y="181" text-anchor="middle" font-size="8.5" font-weight="600" fill="#64748b">writes</text>
  <line x1="360" y1="214" x2="360" y2="242" stroke="#cbd5e1" stroke-width="1.5" stroke-dasharray="4,2" marker-end="url(#arr)"></line>
  <rect x="278" y="244" width="164" height="26" rx="8" fill="white" stroke="#e2e8f0" stroke-width="1"></rect>
  <text x="360" y="254" text-anchor="middle" dominant-baseline="middle" font-size="9.5" font-weight="600" fill="#475569">.aco/sync-manifest.json</text>
  <text x="360" y="266" text-anchor="middle" font-size="8.5" fill="#94a3b8">drift tracking</text>
  <text x="480" y="58" font-size="8" font-weight="700" letter-spacing="1.8" fill="#64748b">GENERATED TARGETS</text>
  <rect x="478" y="64" width="218" height="252" rx="10" fill="#f8fafc" stroke="#94a3b8" stroke-width="1.5" stroke-dasharray="6,3" filter="url(#sh)"></rect>
  <rect x="478" y="64" width="5" height="252" rx="2.5" fill="#94a3b8"></rect>
  <text x="505" y="86" font-size="12" font-weight="700" fill="#374151">Generated Targets</text>
  <text x="505" y="101" font-size="9" fill="#6b7280">managed by aco sync</text>
  <line x1="490" y1="110" x2="684" y2="110" stroke="#e5e7eb" stroke-width="1"></line>
  <rect x="490" y="118" width="196" height="40" rx="7" fill="#f5f3ff" stroke="#c4b5fd" stroke-width="1"></rect>
  <rect x="490" y="118" width="4" height="40" rx="2" fill="#7c3aed"></rect>
  <svg x="496" y="126" width="14" height="14" viewBox="0 0 24 24" xmlns="http://www.w3.org/2000/svg"><defs><linearGradient id="cx-cs1" gradientUnits="userSpaceOnUse" x1="12" x2="12" y1="3" y2="21"><stop stop-color="#B1A7FF"></stop><stop offset=".5" stop-color="#7A9DFF"></stop><stop offset="1" stop-color="#3941FF"></stop></linearGradient></defs><path d="M19.503 0H4.496A4.496 4.496 0 000 4.496v15.007A4.496 4.496 0 004.496 24h15.007A4.496 4.496 0 0024 19.503V4.496A4.496 4.496 0 0019.503 0z" fill="#fff"></path><path d="M9.064 3.344a4.578 4.578 0 012.285-.312c1 .115 1.891.54 2.673 1.275.01.01.024.017.037.021a.09.09 0 00.043 0 4.55 4.55 0 013.046.275l.047.022.116.057a4.581 4.581 0 012.188 2.399c.209.51.313 1.041.315 1.595a4.24 4.24 0 01-.134 1.223.123.123 0 00.03.115c.594.607.988 1.33 1.183 2.17.289 1.425-.007 2.71-.887 3.854l-.136.166a4.548 4.548 0 01-2.201 1.388.123.123 0 00-.081.076c-.191.551-.383 1.023-.74 1.494-.9 1.187-2.222 1.846-3.711 1.838-1.187-.006-2.239-.44-3.157-1.302a.107.107 0 00-.105-.024c-.388.125-.78.143-1.204.138a4.441 4.441 0 01-1.945-.466 4.544 4.544 0 01-1.61-1.335c-.152-.202-.303-.392-.414-.617a5.81 5.81 0 01-.37-.961 4.582 4.582 0 01-.014-2.298.124.124 0 00.006-.056.085.085 0 00-.027-.048 4.467 4.467 0 01-1.034-1.651 3.896 3.896 0 01-.251-1.192 5.189 5.189 0 01.141-1.6c.337-1.112.982-1.985 1.933-2.618.212-.141.413-.251.601-.33.215-.089.43-.164.646-.227a.098.098 0 00.065-.066 4.51 4.51 0 01.829-1.615 4.535 4.535 0 011.837-1.388zm3.482 10.565a.637.637 0 000 1.272h3.636a.637.637 0 100-1.272h-3.636zM8.462 9.23a.637.637 0 00-1.106.631l1.272 2.224-1.266 2.136a.636.636 0 101.095.649l1.454-2.455a.636.636 0 00.005-.64L8.462 9.23z" fill="url(#cx-cs1)"></path></svg>
  <text x="514" y="130" font-size="9.5" font-weight="700" fill="#6d28d9">Codex CLI</text>
  <text x="507" y="147" font-size="9" fill="#5b21b6">AGENTS.md  ·  .codex/agents/</text>
  <rect x="490" y="166" width="196" height="56" rx="7" fill="#eff6ff" stroke="#93c5fd" stroke-width="1"></rect>
  <rect x="490" y="166" width="4" height="56" rx="2" fill="#2563eb"></rect>
  <path d="M503,174 C504.54,179.46 504.54,179.46 510,181 C504.54,182.54 504.54,182.54 503,188 C501.46,182.54 501.46,182.54 496,181 C501.46,179.46 501.46,179.46 503,174 Z" fill="url(#gm-cs)"></path>
  <text x="514" y="184" font-size="9.5" font-weight="700" fill="#1d4ed8">Antigravity (agy)</text>
  <text x="507" y="200" font-size="9" fill="#1e40af">(project-instruction target 없음)</text>
  <text x="507" y="215" font-size="9" fill="#1e40af">OS Keyring 인증</text>
  <rect x="490" y="230" width="196" height="42" rx="7" fill="#f0fdfa" stroke="#5eead4" stroke-width="1"></rect>
  <rect x="490" y="230" width="4" height="42" rx="2" fill="#0d9488"></rect>
  <text x="507" y="248" font-size="9.5" font-weight="700" fill="#0f766e">Shared</text>
  <text x="507" y="264" font-size="9" fill="#0f766e">.agents/skills/  (ACO-owned only)</text>
  <line x1="490" y1="280" x2="684" y2="280" stroke="#e5e7eb" stroke-width="1"></line>
  <text x="588" y="308" text-anchor="middle" font-size="8.5" fill="#9ca3af" font-style="italic">auto-generated · manifest-tracked</text>
  <rect x="253" y="284" width="214" height="50" rx="8" fill="white" stroke="#e2e8f0" stroke-width="1" filter="url(#sh)"></rect>
  <text x="360" y="299" text-anchor="middle" font-size="9" font-weight="700" fill="#1e293b">sync --check</text>
  <text x="360" y="314" text-anchor="middle" font-size="8.5" fill="#64748b">read-only drift check  ·  no changes written</text>
  <text x="360" y="328" text-anchor="middle" font-size="8.5" fill="#64748b">--force  to regenerate targets</text>
</svg>