<svg viewBox="0 0 760 480" xmlns="http://www.w3.org/2000/svg" font-family="&#39;Helvetica Neue&#39;,Helvetica,Arial,sans-serif">
  <defs>
    <linearGradient id="bg-sl" x1="0%" y1="0%" x2="100%" y2="100%"><stop offset="0%" stop-color="#fdf4ff"></stop><stop offset="50%" stop-color="#eef2ff"></stop><stop offset="100%" stop-color="#f0fdfa"></stop></linearGradient>
    <linearGradient id="usr-sl" x1="0%" y1="0%" x2="100%" y2="100%"><stop offset="0%" stop-color="#f472b6"></stop><stop offset="100%" stop-color="#db2777"></stop></linearGradient>
    <linearGradient id="cli-sl" x1="0%" y1="0%" x2="100%" y2="100%"><stop offset="0%" stop-color="#60a5fa"></stop><stop offset="100%" stop-color="#2563eb"></stop></linearGradient>
    <linearGradient id="con-sl" x1="0%" y1="0%" x2="100%" y2="100%"><stop offset="0%" stop-color="#a78bfa"></stop><stop offset="100%" stop-color="#7c3aed"></stop></linearGradient>
    <linearGradient id="prv-sl" x1="0%" y1="0%" x2="100%" y2="100%"><stop offset="0%" stop-color="#34d399"></stop><stop offset="100%" stop-color="#059669"></stop></linearGradient>
    <linearGradient id="art-sl" x1="0%" y1="0%" x2="100%" y2="100%"><stop offset="0%" stop-color="#2dd4bf"></stop><stop offset="100%" stop-color="#0d9488"></stop></linearGradient>
    <filter id="sh-sl" x="-10%" y="-10%" width="120%" height="130%"><feGaussianBlur in="SourceAlpha" stdDeviation="2.5"></feGaussianBlur><feOffset dx="0" dy="2" result="ob"></feOffset><feFlood flood-color="#1e1b4b" flood-opacity="0.12"></feFlood><feComposite in2="ob" operator="in"></feComposite><feMerge><feMergeNode></feMergeNode><feMergeNode in="SourceGraphic"></feMergeNode></feMerge></filter>
    <marker id="arr-b-sl" viewBox="0 0 10 10" refX="9" refY="5" markerWidth="7" markerHeight="7" orient="auto"><path d="M 0 0 L 10 5 L 0 10 z" fill="#3b82f6"></path></marker>
    <marker id="arr-p-sl" viewBox="0 0 10 10" refX="9" refY="5" markerWidth="7" markerHeight="7" orient="auto"><path d="M 0 0 L 10 5 L 0 10 z" fill="#8b5cf6"></path></marker>
    <marker id="arr-t-sl" viewBox="0 0 10 10" refX="9" refY="5" markerWidth="7" markerHeight="7" orient="auto"><path d="M 0 0 L 10 5 L 0 10 z" fill="#0d9488"></path></marker>
    <marker id="arr-g-sl" viewBox="0 0 10 10" refX="9" refY="5" markerWidth="7" markerHeight="7" orient="auto"><path d="M 0 0 L 10 5 L 0 10 z" fill="#10b981"></path></marker>
  </defs>
  <rect width="760" height="480" rx="16" fill="url(#bg-sl)"></rect>
  <circle cx="20" cy="20" r="2.5" fill="#ec4899" opacity="0.4"></circle><circle cx="740" cy="20" r="2.5" fill="#0d9488" opacity="0.4"></circle>
  <text x="380" y="26" text-anchor="middle" dominant-baseline="middle" font-size="15" font-weight="700" fill="#1e293b" letter-spacing="0.3">Delegation Lifecycle — consent-gated aco ask</text>
  <line x1="290" y1="44" x2="340" y2="44" stroke="#ec4899" stroke-width="2" stroke-linecap="round"></line>
  <line x1="420" y1="44" x2="470" y2="44" stroke="#0d9488" stroke-width="2" stroke-linecap="round"></line>
  <circle cx="380" cy="44" r="3" fill="#3b82f6"></circle>
  <g filter="url(#sh-sl)"><rect x="25" y="60" width="120" height="40" rx="8" fill="url(#usr-sl)"></rect></g>
  <text x="85" y="80" text-anchor="middle" dominant-baseline="middle" font-size="12" font-weight="700" fill="white">User</text>
  <g filter="url(#sh-sl)"><rect x="170" y="60" width="140" height="40" rx="8" fill="url(#cli-sl)"></rect></g>
  <text x="240" y="80" text-anchor="middle" dominant-baseline="middle" font-size="12" font-weight="700" fill="white">aco CLI</text>
  <g filter="url(#sh-sl)"><rect x="335" y="60" width="130" height="40" rx="8" fill="url(#con-sl)"></rect></g>
  <text x="400" y="80" text-anchor="middle" dominant-baseline="middle" font-size="12" font-weight="700" fill="white">Consent</text>
  <g filter="url(#sh-sl)"><rect x="490" y="60" width="120" height="40" rx="8" fill="url(#prv-sl)"></rect></g>
  <text x="550" y="80" text-anchor="middle" dominant-baseline="middle" font-size="12" font-weight="700" fill="white">Provider</text>
  <g filter="url(#sh-sl)"><rect x="630" y="60" width="105" height="40" rx="8" fill="url(#art-sl)"></rect></g>
  <text x="682" y="80" text-anchor="middle" dominant-baseline="middle" font-size="12" font-weight="700" fill="white">Artifacts</text>
  <line x1="85" y1="105" x2="85" y2="450" stroke="#ec4899" stroke-width="1" stroke-dasharray="3,3" opacity="0.45"></line>
  <line x1="240" y1="105" x2="240" y2="450" stroke="#3b82f6" stroke-width="1" stroke-dasharray="3,3" opacity="0.45"></line>
  <line x1="400" y1="105" x2="400" y2="450" stroke="#8b5cf6" stroke-width="1" stroke-dasharray="3,3" opacity="0.45"></line>
  <line x1="550" y1="105" x2="550" y2="450" stroke="#10b981" stroke-width="1" stroke-dasharray="3,3" opacity="0.45"></line>
  <line x1="682" y1="105" x2="682" y2="450" stroke="#0d9488" stroke-width="1" stroke-dasharray="3,3" opacity="0.45"></line>
  <circle cx="42" cy="135" r="9" fill="#ec4899"></circle>
  <text x="42" y="135" text-anchor="middle" dominant-baseline="middle" font-size="10" font-weight="700" fill="white">1</text>
  <rect x="100" y="113" width="135" height="18" rx="9" fill="white" stroke="#60a5fa" stroke-width="1"></rect>
  <text x="167" y="122" text-anchor="middle" dominant-baseline="middle" font-size="10" font-weight="500" fill="#1e293b">aco ask --dry-run</text>
  <line x1="85" y1="135" x2="234" y2="135" stroke="#3b82f6" stroke-width="1.5" marker-end="url(#arr-b-sl)"></line>
  <circle cx="197" cy="180" r="9" fill="#3b82f6"></circle>
  <text x="197" y="180" text-anchor="middle" dominant-baseline="middle" font-size="10" font-weight="700" fill="white">2</text>
  <rect x="252" y="158" width="135" height="18" rx="9" fill="white" stroke="#a78bfa" stroke-width="1"></rect>
  <text x="319" y="167" text-anchor="middle" dominant-baseline="middle" font-size="10" font-weight="500" fill="#1e293b">계획 표시, 실행 없음</text>
  <line x1="240" y1="180" x2="394" y2="180" stroke="#8b5cf6" stroke-width="1.5" marker-end="url(#arr-p-sl)"></line>
  <circle cx="197" cy="225" r="9" fill="#3b82f6"></circle>
  <text x="197" y="225" text-anchor="middle" dominant-baseline="middle" font-size="10" font-weight="700" fill="white">3</text>
  <rect x="410" y="203" width="220" height="18" rx="9" fill="white" stroke="#2dd4bf" stroke-width="1"></rect>
  <text x="520" y="212" text-anchor="middle" dominant-baseline="middle" font-size="10" font-weight="500" fill="#1e293b">--yes로 실행 + 세션 생성</text>
  <line x1="240" y1="225" x2="676" y2="225" stroke="#0d9488" stroke-width="1.5" marker-end="url(#arr-t-sl)"></line>
  <circle cx="197" cy="270" r="9" fill="#3b82f6"></circle>
  <text x="197" y="270" text-anchor="middle" dominant-baseline="middle" font-size="10" font-weight="700" fill="white">4</text>
  <rect x="330" y="248" width="180" height="18" rx="9" fill="white" stroke="#34d399" stroke-width="1"></rect>
  <text x="420" y="257" text-anchor="middle" dominant-baseline="middle" font-size="10" font-weight="500" fill="#1e293b">어드바이저리 프로바이더 호출</text>
  <line x1="240" y1="270" x2="544" y2="270" stroke="#10b981" stroke-width="1.5" marker-end="url(#arr-g-sl)"></line>
  <circle cx="595" cy="315" r="9" fill="#10b981"></circle>
  <text x="595" y="315" text-anchor="middle" dominant-baseline="middle" font-size="10" font-weight="700" fill="white">5</text>
  <rect x="270" y="293" width="160" height="18" rx="9" fill="white" stroke="#34d399" stroke-width="1"></rect>
  <text x="350" y="302" text-anchor="middle" dominant-baseline="middle" font-size="10" font-weight="500" fill="#1e293b">전체 출력 스트리밍</text>
  <line x1="550" y1="315" x2="246" y2="315" stroke="#10b981" stroke-width="1.5" stroke-dasharray="5,3" marker-end="url(#arr-g-sl)"></line>
  <circle cx="197" cy="360" r="9" fill="#3b82f6"></circle>
  <text x="197" y="360" text-anchor="middle" dominant-baseline="middle" font-size="10" font-weight="700" fill="white">6</text>
  <rect x="410" y="338" width="220" height="18" rx="9" fill="white" stroke="#2dd4bf" stroke-width="1"></rect>
  <text x="520" y="347" text-anchor="middle" dominant-baseline="middle" font-size="10" font-weight="500" fill="#1e293b">레저 + 요약 + 로그 기록</text>
  <line x1="240" y1="360" x2="676" y2="360" stroke="#0d9488" stroke-width="1.5" marker-end="url(#arr-t-sl)"></line>
  <circle cx="285" cy="405" r="9" fill="#3b82f6"></circle>
  <text x="285" y="405" text-anchor="middle" dominant-baseline="middle" font-size="10" font-weight="700" fill="white">7</text>
  <rect x="100" y="383" width="135" height="18" rx="9" fill="white" stroke="#60a5fa" stroke-width="1"></rect>
  <text x="167" y="392" text-anchor="middle" dominant-baseline="middle" font-size="10" font-weight="500" fill="#1e293b">요약 / 경로 반환</text>
  <line x1="240" y1="405" x2="91" y2="405" stroke="#3b82f6" stroke-width="1.5" stroke-dasharray="5,3" marker-end="url(#arr-b-sl)"></line>
  <line x1="40" y1="445" x2="80" y2="445" stroke="#3b82f6" stroke-width="1.5"></line>
  <text x="88" y="445" dominant-baseline="middle" font-size="10" fill="#475569">solid: request</text>
  <line x1="180" y1="445" x2="220" y2="445" stroke="#10b981" stroke-width="1.5" stroke-dasharray="5,3"></line>
  <text x="228" y="445" dominant-baseline="middle" font-size="10" fill="#475569">dashed: response / async</text>
  <text x="510" y="445" dominant-baseline="middle" font-size="10" fill="#475569">--yes required to invoke</text>
</svg>